<svg xmlns="http://www.w3.org/2000/svg" viewBox="0 0 512 512"><g id="NFT"><path d="M445.5008,138.9682,262.6,33.3682a13.2158,13.2158,0,0,0-13.2,0l-182.9008,105.6a13.1949,13.1949,0,0,0-6.6,11.43v211.2a13.1948,13.1948,0,0,0,6.6,11.43L249.4,478.6275a13.1875,13.1875,0,0,0,13.2,0l182.9008-105.6a13.1948,13.1948,0,0,0,6.6-11.43v-211.2A13.1949,13.1949,0,0,0,445.5008,138.9682Zm-19.8,215.007L256,451.9525,86.2992,353.9752V158.0205L256,60.0432l169.7008,97.9773Z"/><path d="M319.1727,147.3127l27.964,16.1455V356.1494a13.2,13.2,0,1,0,26.4,0V178.7014l14.7727,8.5293a13.1984,13.1984,0,0,0,13.2-22.8594l-69.1367-39.918a13.1984,13.1984,0,0,0-13.2,22.8594Z"/><path d="M249.4,84.1744l-34.5641,19.9547a13.1949,13.1949,0,0,0-6.6,11.43V396.4283a13.2,13.2,0,1,0,26.4,0v-127.23h60.3368a13.2,13.2,0,1,0,0-26.4H234.6359V123.1814L256,110.8494l32.3727,18.6828a13.1984,13.1984,0,0,0,13.2-22.8593L262.6,84.1744A13.2158,13.2158,0,0,0,249.4,84.1744Z"/><path d="M177.4359,127.7705a13.2034,13.2034,0,0,0-13.2,13.2V283.6182L129.7148,171.8994a13.2028,13.2028,0,0,0-25.8156,3.9016V336.1947a13.2,13.2,0,0,0,26.4,0V263.2166L164.82,374.9354a13.2115,13.2115,0,0,0,12.607,9.2984,14.0043,14.0043,0,0,0,1.9766-.1461,13.2006,13.2006,0,0,0,11.232-13.0539V140.9705A13.2034,13.2034,0,0,0,177.4359,127.7705Z"/></g></svg>