<svg id="visual" viewBox="0 0 1000 1000" width="1000" height="1000" xmlns="http://www.w3.org/2000/svg" xmlns:xlink="http://www.w3.org/1999/xlink" version="1.1"><g stroke-width="1" stroke-linejoin="bevel"><path d="M464.5 480.5L454 524L521.5 537Z" fill="#728a81" stroke="#728a81"></path><path d="M454 524L514.5 549.5L521.5 537Z" fill="#586861" stroke="#586861"></path><path d="M454 524L521 571.5L514.5 549.5Z" fill="#7f9b92" stroke="#7f9b92"></path><path d="M514.5 549.5L521 571.5L521.5 537Z" fill="#99bfb6" stroke="#99bfb6"></path><path d="M510 642.5L531 590L479.5 646Z" fill="#4c5852" stroke="#4c5852"></path><path d="M521 571.5L598 534L521.5 537Z" fill="#343936" stroke="#343936"></path><path d="M404.5 451L389.5 529.5L454 524Z" fill="#343936" stroke="#343936"></path><path d="M454 524L411 599L521 571.5Z" fill="#8cada4" stroke="#8cada4"></path><path d="M464.5 480.5L404.5 451L454 524Z" fill="#8cada4" stroke="#8cada4"></path><path d="M531 590L598 534L521 571.5Z" fill="#343936" stroke="#343936"></path><path d="M521.5 537L532.5 408.5L464.5 480.5Z" fill="#99bfb6" stroke="#99bfb6"></path><path d="M464.5 480.5L418 393.5L404.5 451Z" fill="#282b29" stroke="#282b29"></path><path d="M598 534L532.5 408.5L521.5 537Z" fill="#343936" stroke="#343936"></path><path d="M532.5 408.5L524 402L464.5 480.5Z" fill="#657971" stroke="#657971"></path><path d="M389.5 529.5L411 599L454 524Z" fill="#343936" stroke="#343936"></path><path d="M581 404.5L530 390.5L532.5 408.5Z" fill="#343936" stroke="#343936"></path><path d="M532.5 408.5L530 390.5L524 402Z" fill="#657971" stroke="#657971"></path><path d="M524 402L418 393.5L464.5 480.5Z" fill="#8cada4" stroke="#8cada4"></path><path d="M479.5 646L531 590L521 571.5Z" fill="#4c5852" stroke="#4c5852"></path><path d="M647 635L644 542.5L598 534Z" fill="#7f9b92" stroke="#7f9b92"></path><path d="M353 372L362 470L404.5 451Z" fill="#7f9b92" stroke="#7f9b92"></path><path d="M404.5 451L362 470L389.5 529.5Z" fill="#343936" stroke="#343936"></path><path d="M389.5 529.5L330 589.5L411 599Z" fill="#99bfb6" stroke="#99bfb6"></path><path d="M411 599L479.5 646L521 571.5Z" fill="#728a81" stroke="#728a81"></path><path d="M530 390.5L418 393.5L524 402Z" fill="#343936" stroke="#343936"></path><path d="M598 534L581 404.5L532.5 408.5Z" fill="#282b29" stroke="#282b29"></path><path d="M583.5 658L598 534L531 590Z" fill="#282b29" stroke="#282b29"></path><path d="M598 534L670.5 447.5L581 404.5Z" fill="#657971" stroke="#657971"></path><path d="M397 297L397.5 380L418 393.5Z" fill="#657971" stroke="#657971"></path><path d="M418 393.5L397.5 380L404.5 451Z" fill="#99bfb6" stroke="#99bfb6"></path><path d="M658.5 404L599.5 377L581 404.5Z" fill="#343936" stroke="#343936"></path><path d="M581 404.5L578 354L530 390.5Z" fill="#8cada4" stroke="#8cada4"></path><path d="M412.5 284.5L397 297L418 393.5Z" fill="#343936" stroke="#343936"></path><path d="M538.5 684.5L583.5 658L510 642.5Z" fill="#282b29" stroke="#282b29"></path><path d="M510 642.5L583.5 658L531 590Z" fill="#282b29" stroke="#282b29"></path><path d="M599.5 377L578 354L581 404.5Z" fill="#99bfb6" stroke="#99bfb6"></path><path d="M284 494L312.5 516.5L362 470Z" fill="#282b29" stroke="#282b29"></path><path d="M362 470L312.5 516.5L389.5 529.5Z" fill="#99bfb6" stroke="#99bfb6"></path><path d="M312.5 516.5L330 589.5L389.5 529.5Z" fill="#a6d1c9" stroke="#a6d1c9"></path><path d="M411 599L365 645.5L479.5 646Z" fill="#657971" stroke="#657971"></path><path d="M479.5 646L538.5 684.5L510 642.5Z" fill="#282b29" stroke="#282b29"></path><path d="M484.5 720.5L538.5 684.5L479.5 646Z" fill="#8cada4" stroke="#8cada4"></path><path d="M602 308.5L574.5 346.5L578 354Z" fill="#343936" stroke="#343936"></path><path d="M578 354L574.5 346.5L530 390.5Z" fill="#8cada4" stroke="#8cada4"></path><path d="M284 494L307.5 520L312.5 516.5Z" fill="#657971" stroke="#657971"></path><path d="M312.5 516.5L307.5 520L330 589.5Z" fill="#282b29" stroke="#282b29"></path><path d="M330 589.5L365 645.5L411 599Z" fill="#657971" stroke="#657971"></path><path d="M644 542.5L670.5 447.5L598 534Z" fill="#a6d1c9" stroke="#a6d1c9"></path><path d="M599.5 377L602 308.5L578 354Z" fill="#99bfb6" stroke="#99bfb6"></path><path d="M730.5 535.5L686.5 519L738 576.5Z" fill="#657971" stroke="#657971"></path><path d="M644 542.5L686.5 519L670.5 447.5Z" fill="#a6d1c9" stroke="#a6d1c9"></path><path d="M350.5 342.5L353 372L397.5 380Z" fill="#728a81" stroke="#728a81"></path><path d="M397.5 380L353 372L404.5 451Z" fill="#586861" stroke="#586861"></path><path d="M670.5 447.5L658.5 404L581 404.5Z" fill="#728a81" stroke="#728a81"></path><path d="M666 657.5L647 635L583.5 658Z" fill="#8cada4" stroke="#8cada4"></path><path d="M583.5 658L647 635L598 534Z" fill="#728a81" stroke="#728a81"></path><path d="M304.5 418.5L284 494L362 470Z" fill="#404944" stroke="#404944"></path><path d="M252 645.5L284.5 672.5L330 589.5Z" fill="#586861" stroke="#586861"></path><path d="M353 372L304.5 418.5L362 470Z" fill="#282b29" stroke="#282b29"></path><path d="M355.5 705L484.5 720.5L479.5 646Z" fill="#282b29" stroke="#282b29"></path><path d="M699.5 710.5L666 657.5L616 774Z" fill="#586861" stroke="#586861"></path><path d="M330 589.5L335.5 662L365 645.5Z" fill="#586861" stroke="#586861"></path><path d="M365 645.5L355.5 705L479.5 646Z" fill="#404944" stroke="#404944"></path><path d="M284.5 672.5L335.5 662L330 589.5Z" fill="#657971" stroke="#657971"></path><path d="M397 297L350.5 342.5L397.5 380Z" fill="#4c5852" stroke="#4c5852"></path><path d="M353 372L295.5 364L304.5 418.5Z" fill="#a6d1c9" stroke="#a6d1c9"></path><path d="M602 308.5L548 297.5L574.5 346.5Z" fill="#657971" stroke="#657971"></path><path d="M574.5 346.5L548 297.5L530 390.5Z" fill="#728a81" stroke="#728a81"></path><path d="M686.5 519L709 465.5L670.5 447.5Z" fill="#343936" stroke="#343936"></path><path d="M670.5 447.5L709 465.5L658.5 404Z" fill="#404944" stroke="#404944"></path><path d="M730.5 535.5L709 465.5L686.5 519Z" fill="#282b29" stroke="#282b29"></path><path d="M616 774L583.5 658L538.5 684.5Z" fill="#7f9b92" stroke="#7f9b92"></path><path d="M738 576.5L686.5 519L644 542.5Z" fill="#343936" stroke="#343936"></path><path d="M666 657.5L667.5 656L647 635Z" fill="#404944" stroke="#404944"></path><path d="M658.5 404L602 308.5L599.5 377Z" fill="#404944" stroke="#404944"></path><path d="M590 253L602 308.5L690.5 267Z" fill="#7f9b92" stroke="#7f9b92"></path><path d="M412.5 284.5L418 393.5L530 390.5Z" fill="#728a81" stroke="#728a81"></path><path d="M335.5 662L355.5 705L365 645.5Z" fill="#8cada4" stroke="#8cada4"></path><path d="M548 297.5L412.5 284.5L530 390.5Z" fill="#a6d1c9" stroke="#a6d1c9"></path><path d="M738 576.5L644 542.5L647 635Z" fill="#657971" stroke="#657971"></path><path d="M350.5 342.5L295.5 364L353 372Z" fill="#657971" stroke="#657971"></path><path d="M304.5 418.5L227 416.5L284 494Z" fill="#a6d1c9" stroke="#a6d1c9"></path><path d="M298 296.5L295.5 364L350.5 342.5Z" fill="#404944" stroke="#404944"></path><path d="M373 291.5L350.5 342.5L397 297Z" fill="#657971" stroke="#657971"></path><path d="M412.5 284.5L373 291.5L397 297Z" fill="#8cada4" stroke="#8cada4"></path><path d="M590 253L546.5 261L548 297.5Z" fill="#282b29" stroke="#282b29"></path><path d="M548 297.5L486 218.5L412.5 284.5Z" fill="#586861" stroke="#586861"></path><path d="M742 635L738 576.5L647 635Z" fill="#728a81" stroke="#728a81"></path><path d="M447.5 785L494 770L484.5 720.5Z" fill="#99bfb6" stroke="#99bfb6"></path><path d="M484.5 720.5L545 768.5L538.5 684.5Z" fill="#343936" stroke="#343936"></path><path d="M776.5 531L751 482L730.5 535.5Z" fill="#99bfb6" stroke="#99bfb6"></path><path d="M730.5 535.5L751 482L709 465.5Z" fill="#404944" stroke="#404944"></path><path d="M709 465.5L765 373L658.5 404Z" fill="#4c5852" stroke="#4c5852"></path><path d="M252 645.5L330 589.5L213 556.5Z" fill="#4c5852" stroke="#4c5852"></path><path d="M335.5 662L284.5 672.5L355.5 705Z" fill="#a6d1c9" stroke="#a6d1c9"></path><path d="M355.5 705L447.5 785L484.5 720.5Z" fill="#4c5852" stroke="#4c5852"></path><path d="M494 770L545 768.5L484.5 720.5Z" fill="#343936" stroke="#343936"></path><path d="M696.5 304.5L602 308.5L658.5 404Z" fill="#8cada4" stroke="#8cada4"></path><path d="M602 308.5L590 253L548 297.5Z" fill="#657971" stroke="#657971"></path><path d="M486 218.5L404.5 236L412.5 284.5Z" fill="#282b29" stroke="#282b29"></path><path d="M412.5 284.5L404.5 236L373 291.5Z" fill="#7f9b92" stroke="#7f9b92"></path><path d="M213 556.5L330 589.5L307.5 520Z" fill="#a6d1c9" stroke="#a6d1c9"></path><path d="M213 556.5L307.5 520L284 494Z" fill="#8cada4" stroke="#8cada4"></path><path d="M367 787L447.5 785L355.5 705Z" fill="#404944" stroke="#404944"></path><path d="M494 770L513.5 791.5L545 768.5Z" fill="#7f9b92" stroke="#7f9b92"></path><path d="M667.5 656L742 635L647 635Z" fill="#282b29" stroke="#282b29"></path><path d="M779.5 535.5L776.5 531L730.5 535.5Z" fill="#657971" stroke="#657971"></path><path d="M699.5 710.5L742 635L667.5 656Z" fill="#282b29" stroke="#282b29"></path><path d="M699.5 710.5L667.5 656L666 657.5Z" fill="#404944" stroke="#404944"></path><path d="M219 356L227 416.5L295.5 364Z" fill="#282b29" stroke="#282b29"></path><path d="M295.5 364L227 416.5L304.5 418.5Z" fill="#4c5852" stroke="#4c5852"></path><path d="M447.5 785L513.5 791.5L494 770Z" fill="#404944" stroke="#404944"></path><path d="M616 774L666 657.5L583.5 658Z" fill="#8cada4" stroke="#8cada4"></path><path d="M227 416.5L213 556.5L284 494Z" fill="#4c5852" stroke="#4c5852"></path><path d="M779.5 535.5L730.5 535.5L738 576.5Z" fill="#99bfb6" stroke="#99bfb6"></path><path d="M486 218.5L548 297.5L546.5 261Z" fill="#728a81" stroke="#728a81"></path><path d="M373 291.5L298 296.5L350.5 342.5Z" fill="#282b29" stroke="#282b29"></path><path d="M293.5 226L298 296.5L373 291.5Z" fill="#404944" stroke="#404944"></path><path d="M616 774L538.5 684.5L545 768.5Z" fill="#404944" stroke="#404944"></path><path d="M779.5 614L779.5 535.5L738 576.5Z" fill="#4c5852" stroke="#4c5852"></path><path d="M776.5 531L774.5 449.5L751 482Z" fill="#4c5852" stroke="#4c5852"></path><path d="M863 463L774.5 449.5L776.5 531Z" fill="#657971" stroke="#657971"></path><path d="M751 482L774.5 449.5L709 465.5Z" fill="#99bfb6" stroke="#99bfb6"></path><path d="M765 373L696.5 304.5L658.5 404Z" fill="#657971" stroke="#657971"></path><path d="M511 204L486 218.5L546.5 261Z" fill="#4c5852" stroke="#4c5852"></path><path d="M604.5 788L616 774L545 768.5Z" fill="#282b29" stroke="#282b29"></path><path d="M699.5 710.5L752 646.5L742 635Z" fill="#404944" stroke="#404944"></path><path d="M742 635L779.5 614L738 576.5Z" fill="#a6d1c9" stroke="#a6d1c9"></path><path d="M513.5 791.5L604.5 788L545 768.5Z" fill="#4c5852" stroke="#4c5852"></path><path d="M616 774L709.5 737L699.5 710.5Z" fill="#728a81" stroke="#728a81"></path><path d="M224 767L355.5 705L284.5 672.5Z" fill="#343936" stroke="#343936"></path><path d="M224 767L367 787L355.5 705Z" fill="#a6d1c9" stroke="#a6d1c9"></path><path d="M447.5 785L431.5 864L513.5 791.5Z" fill="#a6d1c9" stroke="#a6d1c9"></path><path d="M774.5 449.5L765 373L709 465.5Z" fill="#a6d1c9" stroke="#a6d1c9"></path><path d="M168 612L197.5 593.5L143.5 539Z" fill="#282b29" stroke="#282b29"></path><path d="M213 556.5L197.5 593.5L252 645.5Z" fill="#a6d1c9" stroke="#a6d1c9"></path><path d="M252 645.5L224 767L284.5 672.5Z" fill="#343936" stroke="#343936"></path><path d="M846.5 651.5L779.5 614L752 646.5Z" fill="#282b29" stroke="#282b29"></path><path d="M752 646.5L779.5 614L742 635Z" fill="#8cada4" stroke="#8cada4"></path><path d="M574.5 187.5L511 204L546.5 261Z" fill="#404944" stroke="#404944"></path><path d="M418.5 170L400.5 181.5L404.5 236Z" fill="#728a81" stroke="#728a81"></path><path d="M574.5 187.5L546.5 261L590 253Z" fill="#99bfb6" stroke="#99bfb6"></path><path d="M197.5 593.5L214 641L252 645.5Z" fill="#657971" stroke="#657971"></path><path d="M261 297L219 356L295.5 364Z" fill="#282b29" stroke="#282b29"></path><path d="M134 495L143.5 539L213 556.5Z" fill="#a6d1c9" stroke="#a6d1c9"></path><path d="M708 281.5L690.5 267L696.5 304.5Z" fill="#586861" stroke="#586861"></path><path d="M696.5 304.5L690.5 267L602 308.5Z" fill="#343936" stroke="#343936"></path><path d="M293.5 226L261 297L298 296.5Z" fill="#282b29" stroke="#282b29"></path><path d="M298 296.5L261 297L295.5 364Z" fill="#404944" stroke="#404944"></path><path d="M642 798.5L709.5 737L616 774Z" fill="#586861" stroke="#586861"></path><path d="M699.5 710.5L784.5 724L752 646.5Z" fill="#728a81" stroke="#728a81"></path><path d="M770.5 289.5L708 281.5L696.5 304.5Z" fill="#a6d1c9" stroke="#a6d1c9"></path><path d="M617 860L642 798.5L604.5 788Z" fill="#99bfb6" stroke="#99bfb6"></path><path d="M604.5 788L642 798.5L616 774Z" fill="#657971" stroke="#657971"></path><path d="M617 860L604.5 788L513.5 791.5Z" fill="#7f9b92" stroke="#7f9b92"></path><path d="M191.5 330L181.5 402.5L219 356Z" fill="#4c5852" stroke="#4c5852"></path><path d="M219 356L181.5 402.5L227 416.5Z" fill="#404944" stroke="#404944"></path><path d="M765 373L778.5 344L696.5 304.5Z" fill="#404944" stroke="#404944"></path><path d="M841 394L778.5 344L765 373Z" fill="#404944" stroke="#404944"></path><path d="M841 394L765 373L774.5 449.5Z" fill="#343936" stroke="#343936"></path><path d="M598 156.5L574.5 187.5L611 153Z" fill="#343936" stroke="#343936"></path><path d="M197.5 593.5L168 612L214 641Z" fill="#343936" stroke="#343936"></path><path d="M332.5 859L388 834.5L367 787Z" fill="#a6d1c9" stroke="#a6d1c9"></path><path d="M143.5 539L197.5 593.5L213 556.5Z" fill="#343936" stroke="#343936"></path><path d="M224 767L252 645.5L214 641Z" fill="#586861" stroke="#586861"></path><path d="M367 787L388 834.5L447.5 785Z" fill="#a6d1c9" stroke="#a6d1c9"></path><path d="M418.5 170L404.5 236L486 218.5Z" fill="#728a81" stroke="#728a81"></path><path d="M404.5 236L293.5 226L373 291.5Z" fill="#586861" stroke="#586861"></path><path d="M418.5 170L486 218.5L496 125Z" fill="#a6d1c9" stroke="#a6d1c9"></path><path d="M299.5 211.5L293.5 226L404.5 236Z" fill="#728a81" stroke="#728a81"></path><path d="M261 297L191.5 330L219 356Z" fill="#728a81" stroke="#728a81"></path><path d="M496 125L486 218.5L511 204Z" fill="#343936" stroke="#343936"></path><path d="M341 164.5L299.5 211.5L404.5 236Z" fill="#99bfb6" stroke="#99bfb6"></path><path d="M168 612L177.5 660.5L214 641Z" fill="#728a81" stroke="#728a81"></path><path d="M642 798.5L704 787.5L709.5 737Z" fill="#586861" stroke="#586861"></path><path d="M709.5 737L784.5 724L699.5 710.5Z" fill="#343936" stroke="#343936"></path><path d="M134 495L213 556.5L227 416.5Z" fill="#7f9b92" stroke="#7f9b92"></path><path d="M168 612L144 650.5L177.5 660.5Z" fill="#728a81" stroke="#728a81"></path><path d="M218.5 262L191.5 330L261 297Z" fill="#657971" stroke="#657971"></path><path d="M181.5 402.5L134 495L227 416.5Z" fill="#7f9b92" stroke="#7f9b92"></path><path d="M388 834.5L419.5 854.5L447.5 785Z" fill="#a6d1c9" stroke="#a6d1c9"></path><path d="M695.5 850.5L712 840L704 787.5Z" fill="#343936" stroke="#343936"></path><path d="M341 164.5L404.5 236L400.5 181.5Z" fill="#99bfb6" stroke="#99bfb6"></path><path d="M293.5 226L218.5 262L261 297Z" fill="#404944" stroke="#404944"></path><path d="M708 281.5L736 224L690.5 267Z" fill="#7f9b92" stroke="#7f9b92"></path><path d="M611 153L574.5 187.5L590 253Z" fill="#282b29" stroke="#282b29"></path><path d="M778.5 344L770.5 289.5L696.5 304.5Z" fill="#4c5852" stroke="#4c5852"></path><path d="M141 390L134 495L181.5 402.5Z" fill="#282b29" stroke="#282b29"></path><path d="M369 882L431.5 864L419.5 854.5Z" fill="#a6d1c9" stroke="#a6d1c9"></path><path d="M419.5 854.5L431.5 864L447.5 785Z" fill="#7f9b92" stroke="#7f9b92"></path><path d="M783 779L784.5 724L709.5 737Z" fill="#343936" stroke="#343936"></path><path d="M863 463L776.5 531L779.5 535.5Z" fill="#728a81" stroke="#728a81"></path><path d="M863 463L841 394L774.5 449.5Z" fill="#4c5852" stroke="#4c5852"></path><path d="M863 463L779.5 535.5L872 472.5Z" fill="#8cada4" stroke="#8cada4"></path><path d="M778.5 344L857 341.5L770.5 289.5Z" fill="#99bfb6" stroke="#99bfb6"></path><path d="M223.5 224.5L218.5 262L293.5 226Z" fill="#657971" stroke="#657971"></path><path d="M611 153L590 253L690.5 267Z" fill="#728a81" stroke="#728a81"></path><path d="M574.5 187.5L496 125L511 204Z" fill="#99bfb6" stroke="#99bfb6"></path><path d="M160.5 307.5L141 390L191.5 330Z" fill="#343936" stroke="#343936"></path><path d="M191.5 330L141 390L181.5 402.5Z" fill="#343936" stroke="#343936"></path><path d="M177.5 660.5L224 767L214 641Z" fill="#282b29" stroke="#282b29"></path><path d="M388 834.5L369 882L419.5 854.5Z" fill="#657971" stroke="#657971"></path><path d="M527 892.5L617 860L513.5 791.5Z" fill="#728a81" stroke="#728a81"></path><path d="M704 787.5L783 779L709.5 737Z" fill="#404944" stroke="#404944"></path><path d="M893 539.5L779.5 535.5L779.5 614Z" fill="#586861" stroke="#586861"></path><path d="M102 547.5L144 650.5L168 612Z" fill="#a6d1c9" stroke="#a6d1c9"></path><path d="M177.5 660.5L141.5 780L224 767Z" fill="#657971" stroke="#657971"></path><path d="M102 547.5L168 612L143.5 539Z" fill="#728a81" stroke="#728a81"></path><path d="M732.5 189.5L736 224L768 208.5Z" fill="#99bfb6" stroke="#99bfb6"></path><path d="M770.5 289.5L736 224L708 281.5Z" fill="#343936" stroke="#343936"></path><path d="M683.5 144L611 153L690.5 267Z" fill="#343936" stroke="#343936"></path><path d="M598 156.5L496 125L574.5 187.5Z" fill="#99bfb6" stroke="#99bfb6"></path><path d="M299.5 211.5L223.5 224.5L293.5 226Z" fill="#99bfb6" stroke="#99bfb6"></path><path d="M404 100L341 164.5L400.5 181.5Z" fill="#728a81" stroke="#728a81"></path><path d="M328.5 149L341 164.5L404 100Z" fill="#404944" stroke="#404944"></path><path d="M144 650.5L146.5 666L177.5 660.5Z" fill="#586861" stroke="#586861"></path><path d="M784.5 724L846.5 651.5L752 646.5Z" fill="#404944" stroke="#404944"></path><path d="M893 539.5L872 472.5L779.5 535.5Z" fill="#a6d1c9" stroke="#a6d1c9"></path><path d="M863 463L893.5 374L841 394Z" fill="#282b29" stroke="#282b29"></path><path d="M284.5 845.5L332.5 859L367 787Z" fill="#657971" stroke="#657971"></path><path d="M478 918L527 892.5L431.5 864Z" fill="#a6d1c9" stroke="#a6d1c9"></path><path d="M431.5 864L527 892.5L513.5 791.5Z" fill="#99bfb6" stroke="#99bfb6"></path><path d="M500 86.5L496 125L570.5 72.5Z" fill="#8cada4" stroke="#8cada4"></path><path d="M218.5 262L160.5 307.5L191.5 330Z" fill="#282b29" stroke="#282b29"></path><path d="M223.5 224.5L160.5 307.5L218.5 262Z" fill="#282b29" stroke="#282b29"></path><path d="M224 767L232.5 802.5L367 787Z" fill="#282b29" stroke="#282b29"></path><path d="M233 820.5L232.5 802.5L149.5 844Z" fill="#343936" stroke="#343936"></path><path d="M527 892.5L602.5 885L617 860Z" fill="#282b29" stroke="#282b29"></path><path d="M730.5 840L783 779L704 787.5Z" fill="#728a81" stroke="#728a81"></path><path d="M81 462.5L102 547.5L134 495Z" fill="#404944" stroke="#404944"></path><path d="M134 495L102 547.5L143.5 539Z" fill="#404944" stroke="#404944"></path><path d="M144 650.5L82 711L146.5 666Z" fill="#586861" stroke="#586861"></path><path d="M81 462.5L134 495L141 390Z" fill="#404944" stroke="#404944"></path><path d="M334 950.5L369 882L332.5 859Z" fill="#728a81" stroke="#728a81"></path><path d="M332.5 859L369 882L388 834.5Z" fill="#7f9b92" stroke="#7f9b92"></path><path d="M279 161.5L223.5 224.5L299.5 211.5Z" fill="#343936" stroke="#343936"></path><path d="M232.5 802.5L284.5 845.5L367 787Z" fill="#8cada4" stroke="#8cada4"></path><path d="M404 100L400.5 181.5L418.5 170Z" fill="#728a81" stroke="#728a81"></path><path d="M341 164.5L279 161.5L299.5 211.5Z" fill="#657971" stroke="#657971"></path><path d="M704 787.5L642 798.5L695.5 850.5Z" fill="#99bfb6" stroke="#99bfb6"></path><path d="M784.5 724L876 674.5L846.5 651.5Z" fill="#99bfb6" stroke="#99bfb6"></path><path d="M695.5 850.5L642 798.5L617 860Z" fill="#728a81" stroke="#728a81"></path><path d="M602.5 885L695.5 850.5L617 860Z" fill="#7f9b92" stroke="#7f9b92"></path><path d="M768 208.5L736 224L770.5 289.5Z" fill="#4c5852" stroke="#4c5852"></path><path d="M736 224L732.5 189.5L690.5 267Z" fill="#99bfb6" stroke="#99bfb6"></path><path d="M893.5 374L857 341.5L841 394Z" fill="#728a81" stroke="#728a81"></path><path d="M841 394L857 341.5L778.5 344Z" fill="#728a81" stroke="#728a81"></path><path d="M846.5 651.5L893 539.5L779.5 614Z" fill="#343936" stroke="#343936"></path><path d="M921.5 446.5L893.5 374L863 463Z" fill="#586861" stroke="#586861"></path><path d="M232.5 802.5L261 840L284.5 845.5Z" fill="#99bfb6" stroke="#99bfb6"></path><path d="M284.5 845.5L334 950.5L332.5 859Z" fill="#728a81" stroke="#728a81"></path><path d="M141.5 780L232.5 802.5L224 767Z" fill="#282b29" stroke="#282b29"></path><path d="M232.5 802.5L233 820.5L261 840Z" fill="#282b29" stroke="#282b29"></path><path d="M496 125L423 110.5L418.5 170Z" fill="#404944" stroke="#404944"></path><path d="M712 840L730.5 840L704 787.5Z" fill="#a6d1c9" stroke="#a6d1c9"></path><path d="M749 888.5L730.5 840L712 840Z" fill="#282b29" stroke="#282b29"></path><path d="M749 888.5L712 840L695.5 850.5Z" fill="#99bfb6" stroke="#99bfb6"></path><path d="M369 882L478 918L431.5 864Z" fill="#343936" stroke="#343936"></path><path d="M527 892.5L585.5 955.5L602.5 885Z" fill="#343936" stroke="#343936"></path><path d="M260 109.5L279 161.5L328.5 149Z" fill="#99bfb6" stroke="#99bfb6"></path><path d="M328.5 149L279 161.5L341 164.5Z" fill="#a6d1c9" stroke="#a6d1c9"></path><path d="M851.5 227L768 208.5L770.5 289.5Z" fill="#657971" stroke="#657971"></path><path d="M732.5 189.5L683.5 144L690.5 267Z" fill="#343936" stroke="#343936"></path><path d="M570.5 72.5L496 125L598 156.5Z" fill="#657971" stroke="#657971"></path><path d="M475.5 82.5L404 100L423 110.5Z" fill="#282b29" stroke="#282b29"></path><path d="M703.5 94.5L683.5 144L732.5 189.5Z" fill="#404944" stroke="#404944"></path><path d="M57.5 399.5L81 462.5L141 390Z" fill="#99bfb6" stroke="#99bfb6"></path><path d="M842 783L876 674.5L784.5 724Z" fill="#728a81" stroke="#728a81"></path><path d="M846.5 651.5L920.5 595L893 539.5Z" fill="#a6d1c9" stroke="#a6d1c9"></path><path d="M894 671L876 674.5L900.5 784Z" fill="#7f9b92" stroke="#7f9b92"></path><path d="M475.5 82.5L423 110.5L496 125Z" fill="#728a81" stroke="#728a81"></path><path d="M423 110.5L404 100L418.5 170Z" fill="#7f9b92" stroke="#7f9b92"></path><path d="M876 674.5L888.5 646.5L846.5 651.5Z" fill="#586861" stroke="#586861"></path><path d="M369 882L478.5 931.5L478 918Z" fill="#404944" stroke="#404944"></path><path d="M478 918L478.5 931.5L527 892.5Z" fill="#a6d1c9" stroke="#a6d1c9"></path><path d="M680.5 976.5L749 888.5L695.5 850.5Z" fill="#728a81" stroke="#728a81"></path><path d="M359.5 972.5L478.5 931.5L369 882Z" fill="#8cada4" stroke="#8cada4"></path><path d="M600.5 80L598 156.5L611 153Z" fill="#343936" stroke="#343936"></path><path d="M921.5 446.5L863 463L872 472.5Z" fill="#7f9b92" stroke="#7f9b92"></path><path d="M857 341.5L851.5 227L770.5 289.5Z" fill="#728a81" stroke="#728a81"></path><path d="M500 86.5L475.5 82.5L496 125Z" fill="#a6d1c9" stroke="#a6d1c9"></path><path d="M108.5 308.5L93 354.5L160.5 307.5Z" fill="#728a81" stroke="#728a81"></path><path d="M160.5 307.5L93 354.5L141 390Z" fill="#4c5852" stroke="#4c5852"></path><path d="M108.5 308.5L160.5 307.5L86 292Z" fill="#586861" stroke="#586861"></path><path d="M86 292L160.5 307.5L223.5 224.5Z" fill="#99bfb6" stroke="#99bfb6"></path><path d="M842 783L784.5 724L783 779Z" fill="#343936" stroke="#343936"></path><path d="M876 674.5L894 671L888.5 646.5Z" fill="#7f9b92" stroke="#7f9b92"></path><path d="M920.5 595L927.5 503L893 539.5Z" fill="#586861" stroke="#586861"></path><path d="M927.5 503L921.5 446.5L872 472.5Z" fill="#586861" stroke="#586861"></path><path d="M927.5 503L872 472.5L893 539.5Z" fill="#282b29" stroke="#282b29"></path><path d="M920.5 595L846.5 651.5L888.5 646.5Z" fill="#a6d1c9" stroke="#a6d1c9"></path><path d="M985.5 605.5L1000 643.5L1000 638Z" fill="#586861" stroke="#586861"></path><path d="M82 711L141.5 780L146.5 666Z" fill="#343936" stroke="#343936"></path><path d="M146.5 666L141.5 780L177.5 660.5Z" fill="#657971" stroke="#657971"></path><path d="M224.5 931.5L284.5 845.5L261 840Z" fill="#728a81" stroke="#728a81"></path><path d="M82 711L144 650.5L44.5 694.5Z" fill="#a6d1c9" stroke="#a6d1c9"></path><path d="M703.5 94.5L600.5 80L683.5 144Z" fill="#728a81" stroke="#728a81"></path><path d="M683.5 144L600.5 80L611 153Z" fill="#4c5852" stroke="#4c5852"></path><path d="M500 86.5L485.5 0L475.5 82.5Z" fill="#586861" stroke="#586861"></path><path d="M809.5 845.5L842 783L783 779Z" fill="#404944" stroke="#404944"></path><path d="M600.5 80L570.5 72.5L598 156.5Z" fill="#657971" stroke="#657971"></path><path d="M93 354.5L57.5 399.5L141 390Z" fill="#657971" stroke="#657971"></path><path d="M36.5 605.5L144 650.5L102 547.5Z" fill="#586861" stroke="#586861"></path><path d="M51.5 394L57.5 399.5L93 354.5Z" fill="#282b29" stroke="#282b29"></path><path d="M535.5 1000L585.5 955.5L527 892.5Z" fill="#586861" stroke="#586861"></path><path d="M730.5 840L809.5 845.5L783 779Z" fill="#404944" stroke="#404944"></path><path d="M0 368L51.5 394L0 344.5Z" fill="#586861" stroke="#586861"></path><path d="M57.5 399.5L35.5 487L81 462.5Z" fill="#7f9b92" stroke="#7f9b92"></path><path d="M35.5 487L102 547.5L81 462.5Z" fill="#4c5852" stroke="#4c5852"></path><path d="M0 477L35.5 487L0 476.5Z" fill="#404944" stroke="#404944"></path><path d="M680.5 976.5L695.5 850.5L602.5 885Z" fill="#282b29" stroke="#282b29"></path><path d="M858.5 227.5L851.5 227L857 341.5Z" fill="#343936" stroke="#343936"></path><path d="M768 208.5L787 152L732.5 189.5Z" fill="#99bfb6" stroke="#99bfb6"></path><path d="M858.5 227.5L895 233L863 223.5Z" fill="#8cada4" stroke="#8cada4"></path><path d="M65.5 273L86 292L223.5 224.5Z" fill="#282b29" stroke="#282b29"></path><path d="M108.5 308.5L86 292L93 354.5Z" fill="#282b29" stroke="#282b29"></path><path d="M749 888.5L809.5 845.5L730.5 840Z" fill="#7f9b92" stroke="#7f9b92"></path><path d="M275 81L260 109.5L328.5 149Z" fill="#343936" stroke="#343936"></path><path d="M279 161.5L194.5 152L223.5 224.5Z" fill="#8cada4" stroke="#8cada4"></path><path d="M275 81L328.5 149L404 100Z" fill="#343936" stroke="#343936"></path><path d="M858.5 227.5L857 341.5L895 233Z" fill="#8cada4" stroke="#8cada4"></path><path d="M851.5 227L787 152L768 208.5Z" fill="#586861" stroke="#586861"></path><path d="M853 137L787 152L851.5 227Z" fill="#586861" stroke="#586861"></path><path d="M0 571.5L36.5 605.5L102 547.5Z" fill="#7f9b92" stroke="#7f9b92"></path><path d="M260 109.5L194.5 152L279 161.5Z" fill="#a6d1c9" stroke="#a6d1c9"></path><path d="M787 152L703.5 94.5L732.5 189.5Z" fill="#586861" stroke="#586861"></path><path d="M527 0L500 86.5L570.5 72.5Z" fill="#728a81" stroke="#728a81"></path><path d="M224.5 931.5L261 840L233 820.5Z" fill="#7f9b92" stroke="#7f9b92"></path><path d="M246 954.5L334 950.5L284.5 845.5Z" fill="#728a81" stroke="#728a81"></path><path d="M478.5 931.5L535.5 1000L527 892.5Z" fill="#404944" stroke="#404944"></path><path d="M858.5 227.5L863 223.5L851.5 227Z" fill="#586861" stroke="#586861"></path><path d="M895 233L857 341.5L955.5 299.5Z" fill="#728a81" stroke="#728a81"></path><path d="M0 571.5L31.5 619L36.5 605.5Z" fill="#4c5852" stroke="#4c5852"></path><path d="M36.5 605.5L31.5 619L144 650.5Z" fill="#7f9b92" stroke="#7f9b92"></path><path d="M91 787.5L149.5 844L141.5 780Z" fill="#7f9b92" stroke="#7f9b92"></path><path d="M141.5 780L149.5 844L232.5 802.5Z" fill="#a6d1c9" stroke="#a6d1c9"></path><path d="M91 787.5L141.5 780L82 711Z" fill="#8cada4" stroke="#8cada4"></path><path d="M299.5 19.5L275 81L404 100Z" fill="#a6d1c9" stroke="#a6d1c9"></path><path d="M260 109.5L157 88.5L194.5 152Z" fill="#282b29" stroke="#282b29"></path><path d="M421 0L404 100L475.5 82.5Z" fill="#586861" stroke="#586861"></path><path d="M369 1000L359.5 972.5L353.5 1000Z" fill="#404944" stroke="#404944"></path><path d="M334 950.5L359.5 972.5L369 882Z" fill="#7f9b92" stroke="#7f9b92"></path><path d="M31.5 619L44.5 694.5L144 650.5Z" fill="#8cada4" stroke="#8cada4"></path><path d="M31.5 726L91 787.5L82 711Z" fill="#4c5852" stroke="#4c5852"></path><path d="M194.5 152L65.5 273L223.5 224.5Z" fill="#586861" stroke="#586861"></path><path d="M0 344.5L51.5 394L93 354.5Z" fill="#728a81" stroke="#728a81"></path><path d="M0 476.5L35.5 487L57.5 399.5Z" fill="#99bfb6" stroke="#99bfb6"></path><path d="M843.5 865L843 849.5L809.5 845.5Z" fill="#586861" stroke="#586861"></path><path d="M809.5 845.5L843 849.5L842 783Z" fill="#586861" stroke="#586861"></path><path d="M842 783L900.5 784L876 674.5Z" fill="#99bfb6" stroke="#99bfb6"></path><path d="M985.5 605.5L920.5 595L1000 643.5Z" fill="#a6d1c9" stroke="#a6d1c9"></path><path d="M955.5 299.5L857 341.5L893.5 374Z" fill="#586861" stroke="#586861"></path><path d="M853 137L787.5 103L787 152Z" fill="#728a81" stroke="#728a81"></path><path d="M448.5 1000L459 1000L478.5 931.5Z" fill="#728a81" stroke="#728a81"></path><path d="M359.5 972.5L448.5 1000L478.5 931.5Z" fill="#657971" stroke="#657971"></path><path d="M459 1000L535.5 1000L478.5 931.5Z" fill="#404944" stroke="#404944"></path><path d="M585.5 955.5L661 980.5L602.5 885Z" fill="#7f9b92" stroke="#7f9b92"></path><path d="M749 888.5L843.5 865L809.5 845.5Z" fill="#a6d1c9" stroke="#a6d1c9"></path><path d="M892.5 850L900.5 784L842 783Z" fill="#99bfb6" stroke="#99bfb6"></path><path d="M0 476.5L57.5 399.5L51.5 394Z" fill="#a6d1c9" stroke="#a6d1c9"></path><path d="M35.5 487L0 571.5L102 547.5Z" fill="#8cada4" stroke="#8cada4"></path><path d="M0 698.5L31.5 726L44.5 694.5Z" fill="#404944" stroke="#404944"></path><path d="M0 368L0 476.5L51.5 394Z" fill="#728a81" stroke="#728a81"></path><path d="M0 477L0 571.5L35.5 487Z" fill="#586861" stroke="#586861"></path><path d="M535.5 1000L581 1000L585.5 955.5Z" fill="#586861" stroke="#586861"></path><path d="M143 903.5L224.5 931.5L149.5 844Z" fill="#282b29" stroke="#282b29"></path><path d="M149.5 844L224.5 931.5L233 820.5Z" fill="#404944" stroke="#404944"></path><path d="M359.5 972.5L369 1000L448.5 1000Z" fill="#282b29" stroke="#282b29"></path><path d="M766.5 959.5L843.5 865L749 888.5Z" fill="#657971" stroke="#657971"></path><path d="M843 849.5L892.5 850L842 783Z" fill="#7f9b92" stroke="#7f9b92"></path><path d="M581 1000L661 980.5L585.5 955.5Z" fill="#343936" stroke="#343936"></path><path d="M920.5 595L888.5 646.5L1000 643.5Z" fill="#99bfb6" stroke="#99bfb6"></path><path d="M920.5 595L1000 579.5L927.5 503Z" fill="#657971" stroke="#657971"></path><path d="M927.5 503L1000 504L921.5 446.5Z" fill="#728a81" stroke="#728a81"></path><path d="M1000 369L955.5 299.5L893.5 374Z" fill="#8cada4" stroke="#8cada4"></path><path d="M726.5 1000L680.5 976.5L661 980.5Z" fill="#657971" stroke="#657971"></path><path d="M661 980.5L680.5 976.5L602.5 885Z" fill="#404944" stroke="#404944"></path><path d="M853 137L851.5 227L863 223.5Z" fill="#4c5852" stroke="#4c5852"></path><path d="M787 152L787.5 103L703.5 94.5Z" fill="#99bfb6" stroke="#99bfb6"></path><path d="M527 0L570.5 72.5L593.5 0Z" fill="#282b29" stroke="#282b29"></path><path d="M353.5 1000L359.5 972.5L334 950.5Z" fill="#343936" stroke="#343936"></path><path d="M224.5 931.5L246 954.5L284.5 845.5Z" fill="#657971" stroke="#657971"></path><path d="M44.5 694.5L31.5 726L82 711Z" fill="#586861" stroke="#586861"></path><path d="M122 885L143 903.5L149.5 844Z" fill="#404944" stroke="#404944"></path><path d="M224.5 931.5L227 1000L246 954.5Z" fill="#99bfb6" stroke="#99bfb6"></path><path d="M0 658L44.5 694.5L31.5 619Z" fill="#a6d1c9" stroke="#a6d1c9"></path><path d="M1000 579.5L1000 504L927.5 503Z" fill="#4c5852" stroke="#4c5852"></path><path d="M246 954.5L353.5 1000L334 950.5Z" fill="#657971" stroke="#657971"></path><path d="M1000 390.5L893.5 374L921.5 446.5Z" fill="#404944" stroke="#404944"></path><path d="M855 96.5L770.5 74.5L787.5 103Z" fill="#586861" stroke="#586861"></path><path d="M570.5 72.5L600.5 80L593.5 0Z" fill="#282b29" stroke="#282b29"></path><path d="M527 0L485.5 0L500 86.5Z" fill="#728a81" stroke="#728a81"></path><path d="M644 14.5L600.5 80L703.5 94.5Z" fill="#7f9b92" stroke="#7f9b92"></path><path d="M0 344.5L93 354.5L86 292Z" fill="#8cada4" stroke="#8cada4"></path><path d="M1000 638L1000 579.5L985.5 605.5Z" fill="#4c5852" stroke="#4c5852"></path><path d="M985.5 605.5L1000 579.5L920.5 595Z" fill="#343936" stroke="#343936"></path><path d="M0 571.5L0 658L31.5 619Z" fill="#657971" stroke="#657971"></path><path d="M485.5 0L421 0L475.5 82.5Z" fill="#657971" stroke="#657971"></path><path d="M853 137L863 223.5L920.5 176.5Z" fill="#343936" stroke="#343936"></path><path d="M787.5 103L770.5 74.5L703.5 94.5Z" fill="#404944" stroke="#404944"></path><path d="M721.5 0L644 14.5L703.5 94.5Z" fill="#282b29" stroke="#282b29"></path><path d="M65.5 273L0 344.5L86 292Z" fill="#a6d1c9" stroke="#a6d1c9"></path><path d="M920.5 176.5L863 223.5L895 233Z" fill="#99bfb6" stroke="#99bfb6"></path><path d="M644 14.5L593.5 0L600.5 80Z" fill="#728a81" stroke="#728a81"></path><path d="M1000 504L1000 390.5L921.5 446.5Z" fill="#728a81" stroke="#728a81"></path><path d="M1000 643.5L888.5 646.5L894 671Z" fill="#404944" stroke="#404944"></path><path d="M1000 713L1000 643.5L894 671Z" fill="#a6d1c9" stroke="#a6d1c9"></path><path d="M1000 713L894 671L900.5 784Z" fill="#a6d1c9" stroke="#a6d1c9"></path><path d="M891 869L892.5 850L843.5 865Z" fill="#728a81" stroke="#728a81"></path><path d="M843.5 865L892.5 850L843 849.5Z" fill="#8cada4" stroke="#8cada4"></path><path d="M122 885L149.5 844L88.5 849Z" fill="#586861" stroke="#586861"></path><path d="M88.5 849L149.5 844L91 787.5Z" fill="#7f9b92" stroke="#7f9b92"></path><path d="M0 658L0 698.5L44.5 694.5Z" fill="#282b29" stroke="#282b29"></path><path d="M16.5 836.5L88.5 849L91 787.5Z" fill="#404944" stroke="#404944"></path><path d="M0 742L91 787.5L31.5 726Z" fill="#8cada4" stroke="#8cada4"></path><path d="M726.5 1000L766.5 959.5L680.5 976.5Z" fill="#a6d1c9" stroke="#a6d1c9"></path><path d="M680.5 976.5L766.5 959.5L749 888.5Z" fill="#7f9b92" stroke="#7f9b92"></path><path d="M421 0L299.5 19.5L404 100Z" fill="#4c5852" stroke="#4c5852"></path><path d="M201.5 48.5L157 88.5L260 109.5Z" fill="#99bfb6" stroke="#99bfb6"></path><path d="M194.5 152L53.5 167L65.5 273Z" fill="#a6d1c9" stroke="#a6d1c9"></path><path d="M1000 390.5L1000 369L893.5 374Z" fill="#282b29" stroke="#282b29"></path><path d="M955.5 222L920.5 176.5L895 233Z" fill="#586861" stroke="#586861"></path><path d="M721.5 0L636 0L644 14.5Z" fill="#404944" stroke="#404944"></path><path d="M644 14.5L636 0L593.5 0Z" fill="#282b29" stroke="#282b29"></path><path d="M839.5 1000L891 869L843.5 865Z" fill="#8cada4" stroke="#8cada4"></path><path d="M1000 799.5L1000 713L900.5 784Z" fill="#282b29" stroke="#282b29"></path><path d="M1000 369L1000 336.5L955.5 299.5Z" fill="#99bfb6" stroke="#99bfb6"></path><path d="M201.5 48.5L260 109.5L275 81Z" fill="#282b29" stroke="#282b29"></path><path d="M65.5 273L0 244L0 344.5Z" fill="#99bfb6" stroke="#99bfb6"></path><path d="M157 88.5L125 116L194.5 152Z" fill="#404944" stroke="#404944"></path><path d="M955.5 222L895 233L955.5 299.5Z" fill="#282b29" stroke="#282b29"></path><path d="M853 137L855 96.5L787.5 103Z" fill="#99bfb6" stroke="#99bfb6"></path><path d="M581 1000L726.5 1000L661 980.5Z" fill="#7f9b92" stroke="#7f9b92"></path><path d="M766.5 959.5L839.5 1000L843.5 865Z" fill="#a6d1c9" stroke="#a6d1c9"></path><path d="M0 698.5L0 742L31.5 726Z" fill="#343936" stroke="#343936"></path><path d="M299.5 19.5L201.5 48.5L275 81Z" fill="#343936" stroke="#343936"></path><path d="M86.5 94.5L79 139.5L125 116Z" fill="#586861" stroke="#586861"></path><path d="M1000 275L955.5 222L955.5 299.5Z" fill="#99bfb6" stroke="#99bfb6"></path><path d="M982.5 827.5L900.5 784L892.5 850Z" fill="#7f9b92" stroke="#7f9b92"></path><path d="M421 0L290.5 0L299.5 19.5Z" fill="#99bfb6" stroke="#99bfb6"></path><path d="M299.5 19.5L290.5 0L201.5 48.5Z" fill="#7f9b92" stroke="#7f9b92"></path><path d="M726.5 1000L741 1000L766.5 959.5Z" fill="#343936" stroke="#343936"></path><path d="M920.5 176.5L855 96.5L853 137Z" fill="#a6d1c9" stroke="#a6d1c9"></path><path d="M770.5 74.5L721.5 0L703.5 94.5Z" fill="#8cada4" stroke="#8cada4"></path><path d="M86.5 94.5L125 116L157 88.5Z" fill="#404944" stroke="#404944"></path><path d="M125 116L79 139.5L194.5 152Z" fill="#8cada4" stroke="#8cada4"></path><path d="M79 139.5L53.5 167L194.5 152Z" fill="#586861" stroke="#586861"></path><path d="M96.5 911.5L143 903.5L122 885Z" fill="#728a81" stroke="#728a81"></path><path d="M153.5 1000L224.5 931.5L143 903.5Z" fill="#343936" stroke="#343936"></path><path d="M153.5 1000L227 1000L224.5 931.5Z" fill="#728a81" stroke="#728a81"></path><path d="M246 954.5L227 1000L353.5 1000Z" fill="#7f9b92" stroke="#7f9b92"></path><path d="M53.5 167L39.5 184.5L65.5 273Z" fill="#728a81" stroke="#728a81"></path><path d="M39.5 184.5L0 244L65.5 273Z" fill="#728a81" stroke="#728a81"></path><path d="M787 14.5L721.5 0L770.5 74.5Z" fill="#a6d1c9" stroke="#a6d1c9"></path><path d="M1000 336.5L1000 275L955.5 299.5Z" fill="#a6d1c9" stroke="#a6d1c9"></path><path d="M1000 181.5L966.5 140L920.5 176.5Z" fill="#a6d1c9" stroke="#a6d1c9"></path><path d="M88.5 849L96.5 911.5L122 885Z" fill="#586861" stroke="#586861"></path><path d="M16.5 836.5L96.5 911.5L88.5 849Z" fill="#7f9b92" stroke="#7f9b92"></path><path d="M0 819.5L16.5 836.5L91 787.5Z" fill="#a6d1c9" stroke="#a6d1c9"></path><path d="M855 96.5L787 14.5L770.5 74.5Z" fill="#586861" stroke="#586861"></path><path d="M141 0L86.5 94.5L157 88.5Z" fill="#586861" stroke="#586861"></path><path d="M79 139.5L0 148L53.5 167Z" fill="#728a81" stroke="#728a81"></path><path d="M0 148L0 187.5L39.5 184.5Z" fill="#7f9b92" stroke="#7f9b92"></path><path d="M39.5 184.5L0 187.5L0 244Z" fill="#404944" stroke="#404944"></path><path d="M141 0L157 88.5L201.5 48.5Z" fill="#99bfb6" stroke="#99bfb6"></path><path d="M0 742L0 819.5L91 787.5Z" fill="#343936" stroke="#343936"></path><path d="M1000 862L982.5 827.5L891 869Z" fill="#7f9b92" stroke="#7f9b92"></path><path d="M891 869L982.5 827.5L892.5 850Z" fill="#a6d1c9" stroke="#a6d1c9"></path><path d="M982.5 827.5L1000 799.5L900.5 784Z" fill="#728a81" stroke="#728a81"></path><path d="M290.5 0L202 0L201.5 48.5Z" fill="#343936" stroke="#343936"></path><path d="M0 148L39.5 184.5L53.5 167Z" fill="#282b29" stroke="#282b29"></path><path d="M826 0L789 0L787 14.5Z" fill="#99bfb6" stroke="#99bfb6"></path><path d="M787 14.5L789 0L721.5 0Z" fill="#99bfb6" stroke="#99bfb6"></path><path d="M826 0L787 14.5L855 96.5Z" fill="#728a81" stroke="#728a81"></path><path d="M966.5 140L855 96.5L920.5 176.5Z" fill="#728a81" stroke="#728a81"></path><path d="M202 0L190.5 0L201.5 48.5Z" fill="#99bfb6" stroke="#99bfb6"></path><path d="M0 819.5L0 843L16.5 836.5Z" fill="#a6d1c9" stroke="#a6d1c9"></path><path d="M16.5 836.5L0 944.5L96.5 911.5Z" fill="#a6d1c9" stroke="#a6d1c9"></path><path d="M126 1000L143 903.5L96.5 911.5Z" fill="#404944" stroke="#404944"></path><path d="M126 1000L153.5 1000L143 903.5Z" fill="#728a81" stroke="#728a81"></path><path d="M741 1000L839.5 1000L766.5 959.5Z" fill="#343936" stroke="#343936"></path><path d="M1000 181.5L920.5 176.5L955.5 222Z" fill="#404944" stroke="#404944"></path><path d="M1000 275L1000 181.5L955.5 222Z" fill="#282b29" stroke="#282b29"></path><path d="M831.5 0L826 0L855 96.5Z" fill="#343936" stroke="#343936"></path><path d="M86.5 94.5L0 148L79 139.5Z" fill="#7f9b92" stroke="#7f9b92"></path><path d="M0 64.5L0 148L86.5 94.5Z" fill="#586861" stroke="#586861"></path><path d="M75.5 1000L126 1000L96.5 911.5Z" fill="#343936" stroke="#343936"></path><path d="M942.5 54.5L831.5 0L855 96.5Z" fill="#586861" stroke="#586861"></path><path d="M1000 181.5L1000 164L966.5 140Z" fill="#99bfb6" stroke="#99bfb6"></path><path d="M966.5 140L942.5 54.5L855 96.5Z" fill="#8cada4" stroke="#8cada4"></path><path d="M943.5 963.5L1000 862L891 869Z" fill="#99bfb6" stroke="#99bfb6"></path><path d="M982.5 827.5L1000 862L1000 799.5Z" fill="#99bfb6" stroke="#99bfb6"></path><path d="M190.5 0L141 0L201.5 48.5Z" fill="#343936" stroke="#343936"></path><path d="M839.5 1000L915 981.5L891 869Z" fill="#404944" stroke="#404944"></path><path d="M915 981.5L943.5 963.5L891 869Z" fill="#343936" stroke="#343936"></path><path d="M1000 47.5L942.5 54.5L966.5 140Z" fill="#4c5852" stroke="#4c5852"></path><path d="M0 944.5L75.5 1000L96.5 911.5Z" fill="#404944" stroke="#404944"></path><path d="M839.5 1000L913 1000L915 981.5Z" fill="#657971" stroke="#657971"></path><path d="M915 981.5L913 1000L943.5 963.5Z" fill="#282b29" stroke="#282b29"></path><path d="M0 843L0 944.5L16.5 836.5Z" fill="#4c5852" stroke="#4c5852"></path><path d="M55.5 0L0 64.5L86.5 94.5Z" fill="#4c5852" stroke="#4c5852"></path><path d="M141 0L55.5 0L86.5 94.5Z" fill="#a6d1c9" stroke="#a6d1c9"></path><path d="M1000 47.5L942.5 0L942.5 54.5Z" fill="#728a81" stroke="#728a81"></path><path d="M942.5 54.5L942.5 0L831.5 0Z" fill="#a6d1c9" stroke="#a6d1c9"></path><path d="M979.5 1000L1000 971.5L943.5 963.5Z" fill="#99bfb6" stroke="#99bfb6"></path><path d="M943.5 963.5L1000 971.5L1000 862Z" fill="#4c5852" stroke="#4c5852"></path><path d="M1000 164L1000 47.5L966.5 140Z" fill="#282b29" stroke="#282b29"></path><path d="M913 1000L979.5 1000L943.5 963.5Z" fill="#586861" stroke="#586861"></path><path d="M0 944.5L0 1000L75.5 1000Z" fill="#a6d1c9" stroke="#a6d1c9"></path><path d="M979.5 1000L1000 1000L1000 971.5Z" fill="#4c5852" stroke="#4c5852"></path><path d="M55.5 0L0 0L0 64.5Z" fill="#99bfb6" stroke="#99bfb6"></path><path d="M1000 47.5L1000 0L942.5 0Z" fill="#282b29" stroke="#282b29"></path></g></svg>