<?xml version="1.0" standalone="no"?>
<!DOCTYPE svg PUBLIC "-//W3C//DTD SVG 20010904//EN"
 "http://www.w3.org/TR/2001/REC-SVG-20010904/DTD/svg10.dtd">
<svg version="1.0" xmlns="http://www.w3.org/2000/svg"
 width="700.000000pt" height="700.000000pt" viewBox="0 0 700.000000 700.000000"
 preserveAspectRatio="xMidYMid meet">
<metadata>
Created by potrace 1.14, written by Peter Selinger 2001-2017
</metadata>
<g transform="translate(0.000000,700.000000) scale(0.100000,-0.100000)"
fill="#000000" stroke="none">
<path d="M3448 6560 c-15 -5 -53 -24 -85 -43 -32 -19 -74 -44 -93 -55 -19 -10
-120 -69 -225 -129 -104 -60 -233 -135 -285 -165 -52 -30 -333 -192 -625 -360
-291 -168 -544 -314 -562 -324 -18 -11 -101 -59 -185 -107 -483 -279 -514
-299 -538 -335 l-25 -36 0 -1506 0 -1506 25 -37 c19 -28 82 -69 279 -184 140
-81 259 -150 265 -152 6 -2 40 -22 76 -43 36 -21 72 -43 80 -47 14 -9 326
-189 414 -240 22 -13 129 -74 236 -136 107 -62 213 -123 235 -135 22 -12 65
-37 95 -55 49 -30 511 -297 600 -348 19 -10 98 -56 175 -100 131 -77 144 -82
196 -81 40 0 68 7 95 24 22 12 53 30 69 40 37 21 575 331 790 455 88 51 291
168 450 260 160 92 412 237 560 323 149 85 299 172 334 194 34 21 64 38 66 38
5 0 227 131 251 148 13 9 33 35 44 58 20 40 20 52 18 1536 l-3 1494 -25 37
c-18 26 -66 60 -175 124 -143 83 -992 574 -1065 615 -119 68 -707 408 -765
442 -38 23 -77 45 -85 49 -8 4 -31 17 -50 28 -395 238 -487 280 -562 259z
m230 -483 c97 -57 258 -150 357 -207 99 -57 218 -126 265 -153 47 -27 105 -61
130 -75 109 -61 949 -547 982 -568 21 -13 39 -24 42 -24 2 0 84 -47 182 -104
l179 -104 0 -1343 c0 -1333 0 -1343 -20 -1354 -18 -9 -128 -72 -165 -95 -8 -5
-58 -33 -110 -63 -184 -106 -748 -432 -990 -572 -135 -78 -265 -153 -290 -167
-25 -14 -85 -49 -135 -78 -49 -29 -110 -64 -135 -78 -25 -14 -78 -45 -118 -69
-41 -24 -76 -43 -78 -43 -2 0 -21 -11 -42 -24 -20 -12 -81 -48 -134 -79 l-98
-57 -272 159 c-150 86 -385 222 -523 301 -137 79 -261 150 -275 159 -14 9 -34
21 -45 27 -30 16 -1060 610 -1138 656 l-67 40 2 1340 3 1340 130 75 c72 42
216 125 320 185 105 61 260 150 345 199 85 49 461 267 835 483 374 217 681
395 683 395 2 1 83 -45 180 -102z"/>
<path d="M3462 5868 c-27 -7 -114 -52 -172 -88 -8 -6 -98 -58 -199 -116 -102
-59 -193 -116 -203 -128 -42 -51 -41 -6 -41 -2042 0 -1902 0 -1951 19 -1989
44 -90 146 -127 237 -87 48 21 92 75 101 122 2 14 5 420 5 902 l1 877 429 1
c236 0 440 4 453 9 39 15 90 62 104 98 18 42 18 117 0 151 -21 41 -68 81 -107
92 -20 6 -210 10 -456 10 l-423 0 0 818 0 819 67 39 c37 21 76 44 87 51 12 7
48 26 81 43 l60 32 238 -137 c213 -123 242 -137 285 -138 152 -2 238 179 142
296 -13 16 -118 82 -230 144 -19 11 -109 63 -200 116 -173 100 -223 119 -278
105z"/>
<path d="M4430 5320 c-111 -20 -182 -131 -148 -232 12 -37 62 -95 93 -109 11
-5 99 -55 195 -111 l175 -103 1 -1340 c0 -1206 2 -1343 16 -1370 45 -85 149
-126 231 -91 39 16 85 63 102 104 10 23 13 295 13 1251 0 672 2 1225 5 1227 3
3 36 -13 74 -36 152 -91 202 -106 274 -82 61 21 119 101 119 164 0 84 -41 133
-168 206 -98 56 -283 163 -635 366 -259 150 -295 165 -347 156z"/>
<path d="M2388 5249 c-49 -13 -93 -47 -118 -91 l-24 -43 0 -988 c0 -543 -3
-982 -7 -975 -4 7 -32 94 -62 193 -179 584 -410 1322 -419 1339 -43 80 -141
113 -225 76 -48 -21 -87 -61 -103 -104 -7 -20 -9 -399 -7 -1171 l2 -1141 25
-37 c77 -114 250 -105 309 16 21 44 21 53 21 557 0 282 3 511 5 508 3 -3 8
-15 10 -28 2 -12 24 -86 49 -164 24 -77 63 -202 86 -276 23 -74 61 -198 85
-275 24 -77 87 -282 141 -455 53 -173 106 -332 118 -353 74 -135 279 -108 324
43 13 43 10 3225 -3 3255 -35 83 -130 135 -207 114z"/>
</g>
</svg>
